<?xml version="1.0" encoding="UTF-8" standalone="no"?>
<svg
   id="svg306"
   version="1.1"
   viewBox="0 0 502.17917 502.17908"
   height="1897.9996"
   width="1897.9996"
   sodipodi:docname="NetZero logo (short).svg"
   inkscape:version="1.3 (0e150ed6c4, 2023-07-21)"
   xmlns:inkscape="http://www.inkscape.org/namespaces/inkscape"
   xmlns:sodipodi="http://sodipodi.sourceforge.net/DTD/sodipodi-0.dtd"
   xmlns="http://www.w3.org/2000/svg"
   xmlns:svg="http://www.w3.org/2000/svg"
   xmlns:rdf="http://www.w3.org/1999/02/22-rdf-syntax-ns#"
   xmlns:cc="http://creativecommons.org/ns#"
   xmlns:dc="http://purl.org/dc/elements/1.1/">
  <sodipodi:namedview
     id="namedview1"
     pagecolor="#ffffff"
     bordercolor="#000000"
     borderopacity="0.25"
     inkscape:showpageshadow="2"
     inkscape:pageopacity="0.0"
     inkscape:pagecheckerboard="0"
     inkscape:deskcolor="#d1d1d1"
     inkscape:zoom="0.35142262"
     inkscape:cx="948.99982"
     inkscape:cy="947.57703"
     inkscape:window-width="1920"
     inkscape:window-height="1019"
     inkscape:window-x="0"
     inkscape:window-y="930"
     inkscape:window-maximized="1"
     inkscape:current-layer="svg306" />
  <defs
     id="defs300">
    <style
       id="style1002">&#10;      .cls-1 {&#10;        fill: #fff;&#10;        fill-rule: evenodd;&#10;      }&#10;    </style>
  </defs>
  <metadata
     id="metadata303">
    <rdf:RDF>
      <cc:Work
         rdf:about="">
        <dc:format>image/svg+xml</dc:format>
        <dc:type
           rdf:resource="http://purl.org/dc/dcmitype/StillImage" />
      </cc:Work>
    </rdf:RDF>
  </metadata>
  <g
     id="layer1"
     transform="translate(-13.493772,-13.493772)">
    <rect
       id="rect277"
       class="cls-1"
       ry="26.458334"
       rx="26.458334"
       height="488.68542"
       width="488.68542"
       style="fill:none;stroke:#08a75a;stroke-width:13.4937px;stroke-linejoin:bevel"
       x="20.240622"
       y="20.240622" />
    <path
       style="fill:#08a75a;fill-rule:evenodd;stroke-width:0.27484"
       id="path250"
       class="cls-1"
       d="m 329.72056,344.18482 c -11.9301,0 -21.10092,-3.37271 -27.51246,-10.12152 -6.41319,-6.74692 -9.61804,-16.34593 -9.61804,-28.79853 v -60.61663 h -13.86809 v -22.47966 h 13.86809 v -24.38061 l 27.9597,-10.2893 v 34.66991 h 32.88067 v 22.47966 h -32.88067 v 52.4526 c 0,8.57496 1.34212,14.63332 4.02607,18.17371 2.68422,3.54201 7.38147,5.31232 14.0918,5.31232 6.71035,0 12.97319,-1.82607 18.7889,-5.47994 v 25.72279 c -6.48668,2.23682 -15.73249,3.3552 -27.73597,3.3552 z m -49.14747,-53.571 h -85.55662 c 0.52054,9.54487 3.80233,16.96303 9.84173,22.25614 6.0394,5.29483 14.16518,7.9406 24.38077,7.9406 12.74965,0 22.44141,-3.31672 29.07831,-9.95364 l 10.84825,21.36126 c -9.84173,7.97872 -24.53109,11.96664 -44.06451,11.96664 -18.2683,0 -32.71282,-5.34895 -43.33756,-16.04881 -10.62481,-10.69822 -15.93689,-25.62864 -15.93689,-44.79156 0,-18.86246 5.83289,-34.14739 17.50267,-45.85415 11.66793,-11.70431 25.66689,-17.55841 41.99549,-17.55841 17.37166,0 31.31477,5.18277 41.82776,15.54537 10.51295,10.36451 15.76932,23.56147 15.76932,39.59116 0,3.43043 -0.7828,8.61161 -2.34872,15.5454 z m -54.80088,-47.30789 c -15.95645,0 -25.87329,8.76187 -29.74924,26.28225 h 58.82727 c -1.93971,-17.52038 -11.63133,-26.28225 -29.07803,-26.28225 z m -93.32394,29.41372 c 0,-10.21383 -1.95722,-17.6703 -5.87167,-22.36779 -3.91419,-4.6972 -10.30815,-7.04593 -19.18027,-7.04593 -4.10131,0 -8.482238,1.157 -13.141016,3.46714 -4.660443,2.31208 -8.295417,5.18312 -10.904335,8.61166 v 86.56333 H 55.391311 V 222.16848 h 20.130956 l 5.144744,11.18382 c 7.604975,-8.94705 18.825366,-13.42041 33.663329,-13.42041 14.24045,0 25.48002,4.26903 33.71942,12.80544 8.23772,8.53803 12.35822,20.44885 12.35822,35.73247 v 73.47826 h -27.95971 z" />
    <path
       id="path342"
       class="cls-1"
       d="m 457.40848,459.23371 c -10.26101,11.26806 -24.30813,16.90105 -42.14185,16.90105 -18.20772,0 -32.36695,-5.68908 -42.47705,-17.06911 -10.11225,-11.37832 -15.1667,-26.50828 -15.1667,-45.38742 0,-18.28166 5.27805,-33.16837 15.83797,-44.66031 10.55812,-11.49039 24.49369,-17.23733 41.80578,-17.23733 18.20609,0 32.34796,5.52326 42.4217,16.56572 10.07365,11.04419 15.11059,26.15503 15.11059,45.33192 0,19.10307 -5.13131,34.28881 -15.39044,45.55548 z M 415.26663,374.6144 c -8.73041,0 -15.67009,3.43334 -20.81892,10.29764 -5.14882,6.86608 -7.72297,16.4537 -7.72297,28.76619 0,26.41514 9.51383,39.62301 28.54189,39.62301 8.7308,0 15.65116,-3.43135 20.76331,-10.29745 5.11006,-6.86463 7.66697,-16.63928 7.66697,-29.32556 0,-26.04129 -9.47727,-39.06383 -28.43028,-39.06383 z m -70.03628,0.55974 c -6.49204,0 -12.2564,2.94853 -17.29331,8.84254 -5.03671,5.89537 -7.55517,13.09567 -7.55517,21.60232 v 68.27724 h -27.9827 V 354.01925 h 27.9827 v 10.96915 c 7.83513,-8.80408 18.24434,-13.20781 31.22846,-13.20781 2.05181,0 4.00018,0.0664 5.84553,0.2016 l 0.51599,26.02346 c -3.9687,-1.88737 -8.21592,-2.83151 -12.7415,-2.83151 z m -151.73238,47.34635 c 0.52115,9.55238 3.80549,16.97649 9.84983,22.27391 6.04435,5.29933 14.1765,7.94713 24.40054,7.94713 12.76018,0 22.45949,-3.31944 29.10209,-9.96168 l 10.85709,21.37855 c -9.84977,7.98562 -24.55103,11.97636 -44.10043,11.97636 -18.28313,0 -32.73959,-5.35316 -43.37284,-16.0618 -10.63351,-10.7067 -15.95009,-25.64958 -15.95009,-44.82805 0,-18.87753 5.83791,-34.17528 17.51697,-45.89109 11.6777,-11.71426 25.68796,-17.57323 42.02988,-17.57323 17.38585,0 31.34033,5.18735 41.86193,15.55832 10.52138,10.37284 15.78202,23.58056 15.78202,39.62336 0,3.43296 -0.78338,8.61856 -2.35055,15.55822 z m 30.78065,-47.34635 c -15.9692,0 -25.89441,8.76898 -29.77321,26.30359 h 58.87527 c -1.94125,-17.53461 -11.64086,-26.30359 -29.10206,-26.30359 z M 54.6375,464.38239 119.66897,378.42022 H 55.756789 V 354.01925 H 160.5235 v 9.84989 l -62.680959,85.62644 h 63.352389 v 24.40066 H 54.6375 Z"
       style="fill:#333335;fill-rule:evenodd;stroke-width:0.275095" />
  </g>
</svg>
